<svg id="svg" version="1.1" xmlns="http://www.w3.org/2000/svg" xmlns:xlink="http://www.w3.org/1999/xlink" width="400" height="400" viewBox="0, 0, 400,400"><g id="svgg"><path id="path0" d="M184.820 33.521 L 169.625 48.704 215.670 94.815 C 259.477 138.685,263.490 142.764,266.111 146.084 C 266.722 146.858,267.472 147.793,267.778 148.161 C 272.630 154.015,278.372 165.138,281.442 174.630 C 286.675 190.810,286.300 212.739,280.526 228.057 C 280.009 229.431,279.429 231.056,279.239 231.667 C 278.098 235.337,271.460 247.218,268.514 250.861 C 268.321 251.100,267.118 252.584,265.841 254.159 C 264.563 255.733,255.978 264.566,246.761 273.788 L 230.003 290.556 245.194 305.741 L 260.384 320.926 279.005 302.222 C 298.049 283.094,300.833 279.981,306.663 271.296 C 310.824 265.100,314.859 257.751,317.465 251.626 C 317.802 250.834,318.427 249.395,318.854 248.430 C 319.280 247.465,319.630 246.456,319.630 246.189 C 319.630 245.922,319.773 245.545,319.949 245.352 C 320.459 244.790,323.025 236.740,324.281 231.759 C 325.159 228.279,325.892 224.920,326.119 223.341 C 326.250 222.429,326.408 221.595,326.471 221.489 C 326.533 221.383,326.692 220.357,326.824 219.209 C 326.955 218.061,327.140 216.728,327.234 216.246 C 328.604 209.211,328.162 187.092,326.477 178.333 C 324.648 168.828,323.773 165.418,321.327 158.277 C 316.129 143.102,308.494 129.636,297.841 116.852 C 296.313 115.019,273.677 92.103,247.539 65.928 L 200.015 18.337 184.820 33.521 M114.353 104.082 C 104.297 114.233,103.266 115.315,101.006 118.089 C 100.351 118.893,99.315 120.164,98.704 120.913 C 96.953 123.058,91.582 130.791,90.849 132.222 C 90.484 132.935,90.072 133.604,89.935 133.709 C 89.405 134.111,84.366 143.693,82.734 147.402 C 62.859 192.561,69.860 243.830,101.102 281.914 C 104.420 285.959,138.750 320.741,139.424 320.741 C 139.915 320.741,169.630 291.057,169.630 290.566 C 169.630 290.370,161.740 282.287,152.096 272.605 C 132.851 253.281,130.401 250.421,125.230 241.231 C 119.940 231.831,116.191 219.923,114.992 208.704 C 113.972 199.171,114.944 187.322,117.544 177.593 C 119.171 171.505,125.315 156.991,126.240 157.053 C 126.373 157.062,133.359 163.854,141.765 172.146 L 157.048 187.222 156.474 189.444 C 155.650 192.633,155.460 201.591,156.131 205.600 C 160.025 228.853,183.508 245.337,205.926 240.554 C 206.435 240.446,207.435 240.260,208.148 240.141 C 208.861 240.023,209.736 239.770,210.093 239.579 C 210.449 239.389,210.741 239.315,210.741 239.415 C 210.741 240.224,219.553 235.954,223.333 233.312 C 253.396 212.305,243.000 162.729,207.222 156.481 C 206.407 156.339,205.324 156.139,204.815 156.038 C 201.157 155.311,192.223 155.726,188.148 156.813 C 187.800 156.905,175.808 145.191,156.020 125.427 L 124.448 93.894 114.353 104.082 M202.603 188.773 C 210.617 192.319,210.976 203.825,203.197 207.839 C 194.647 212.251,184.916 203.215,188.773 194.444 C 191.222 188.874,197.246 186.404,202.603 188.773 M184.726 335.837 L 169.444 351.107 184.631 366.295 L 199.817 381.483 215.094 366.203 L 230.370 350.923 215.189 335.745 L 200.008 320.567 184.726 335.837 " stroke="none" fill="#5cbc74" fill-rule="evenodd"></path><path id="path1" d="M179.259 58.704 C 184.655 64.102,189.152 68.519,189.254 68.519 C 189.356 68.519,185.025 64.102,179.630 58.704 C 174.234 53.306,169.737 48.889,169.635 48.889 C 169.533 48.889,173.864 53.306,179.259 58.704 M225.370 104.815 C 245.129 124.574,261.378 140.741,261.480 140.741 C 261.582 140.741,245.499 124.574,225.741 104.815 C 205.982 85.056,189.733 68.889,189.631 68.889 C 189.529 68.889,205.612 85.056,225.370 104.815 M149.634 180.185 C 153.604 184.259,156.928 187.544,157.021 187.485 C 157.114 187.426,153.866 184.093,149.803 180.078 L 142.417 172.778 149.634 180.185 M284.926 194.444 C 284.926 195.565,284.995 196.023,285.080 195.463 C 285.165 194.903,285.165 193.986,285.080 193.426 C 284.995 192.866,284.926 193.324,284.926 194.444 M155.296 198.519 C 155.296 199.639,155.366 200.097,155.450 199.537 C 155.535 198.977,155.535 198.060,155.450 197.500 C 155.366 196.940,155.296 197.398,155.296 198.519 M284.926 205.185 C 284.926 206.306,284.995 206.764,285.080 206.204 C 285.165 205.644,285.165 204.727,285.080 204.167 C 284.995 203.606,284.926 204.065,284.926 205.185 M284.530 209.630 C 284.530 210.343,284.607 210.634,284.700 210.278 C 284.793 209.921,284.793 209.338,284.700 208.981 C 284.607 208.625,284.530 208.917,284.530 209.630 M166.667 227.523 C 166.667 227.587,167.208 228.129,167.870 228.727 L 169.074 229.815 167.986 228.611 C 166.972 227.489,166.667 227.237,166.667 227.523 M244.815 305.741 C 253.063 313.991,259.895 320.741,259.997 320.741 C 260.098 320.741,253.433 313.991,245.185 305.741 C 236.937 297.491,230.105 290.741,230.003 290.741 C 229.902 290.741,236.567 297.491,244.815 305.741 " stroke="none" fill="#5cbc7c" fill-rule="evenodd"></path><path id="path2" d="M275.924 305.463 L 260.185 321.296 276.019 305.557 C 284.727 296.901,291.852 289.776,291.852 289.724 C 291.852 289.463,290.553 290.746,275.924 305.463 M214.998 366.389 L 199.815 381.667 215.093 366.483 C 223.495 358.132,230.370 351.257,230.370 351.205 C 230.370 350.945,229.111 352.189,214.998 366.389 " stroke="none" fill="#60bc74" fill-rule="evenodd"></path><path id="path3" d="M275.924 305.463 L 260.185 321.296 276.019 305.557 C 284.727 296.901,291.852 289.776,291.852 289.724 C 291.852 289.463,290.553 290.746,275.924 305.463 M214.998 366.389 L 199.815 381.667 215.093 366.483 C 223.495 358.132,230.370 351.257,230.370 351.205 C 230.370 350.945,229.111 352.189,214.998 366.389 " stroke="none" fill="#60bc74" fill-rule="evenodd"></path><path id="path4" d="M275.924 305.463 L 260.185 321.296 276.019 305.557 C 284.727 296.901,291.852 289.776,291.852 289.724 C 291.852 289.463,290.553 290.746,275.924 305.463 M214.998 366.389 L 199.815 381.667 215.093 366.483 C 223.495 358.132,230.370 351.257,230.370 351.205 C 230.370 350.945,229.111 352.189,214.998 366.389 " stroke="none" fill="#60bc74" fill-rule="evenodd"></path></g></svg>